<mxfile host="app.diagrams.net" modified="2023-07-30T06:22:41.547Z" agent="Mozilla/5.0 (Windows NT 10.0; Win64; x64) AppleWebKit/537.36 (KHTML, like Gecko) Chrome/109.0.0.0 Safari/537.36" etag="YhpOoPNdM3Kc4GM15YOJ" version="21.6.6" type="device">
  <diagram id="DEKvj0qVawriSEcYFk6M" name="Page-1">
    <mxGraphModel dx="1050" dy="589" grid="1" gridSize="10" guides="1" tooltips="1" connect="1" arrows="1" fold="1" page="1" pageScale="1" pageWidth="850" pageHeight="1100" math="0" shadow="0">
      <root>
        <mxCell id="0" />
        <mxCell id="1" parent="0" />
        <mxCell id="QNgejIit8UnGDTKIT5bf-66" style="edgeStyle=none;rounded=0;orthogonalLoop=1;jettySize=auto;html=1;entryX=0.5;entryY=0;entryDx=0;entryDy=0;" edge="1" parent="1" source="QNgejIit8UnGDTKIT5bf-43" target="QNgejIit8UnGDTKIT5bf-58">
          <mxGeometry relative="1" as="geometry" />
        </mxCell>
        <mxCell id="QNgejIit8UnGDTKIT5bf-43" value="&amp;nbsp;" style="rounded=1;whiteSpace=wrap;html=1;dashed=1;fillColor=#cdeb8b;strokeColor=#36393d;" vertex="1" parent="1">
          <mxGeometry x="88.5" y="630" width="152.5" height="100" as="geometry" />
        </mxCell>
        <mxCell id="QNgejIit8UnGDTKIT5bf-39" value="" style="rounded=1;whiteSpace=wrap;html=1;dashed=1;fillColor=#cdeb8b;strokeColor=#36393d;" vertex="1" parent="1">
          <mxGeometry x="98.5" y="460" width="150" height="90" as="geometry" />
        </mxCell>
        <mxCell id="QNgejIit8UnGDTKIT5bf-33" style="edgeStyle=orthogonalEdgeStyle;rounded=0;orthogonalLoop=1;jettySize=auto;html=1;" edge="1" parent="1" source="QNgejIit8UnGDTKIT5bf-25">
          <mxGeometry relative="1" as="geometry">
            <mxPoint x="503.5" y="480" as="targetPoint" />
          </mxGeometry>
        </mxCell>
        <mxCell id="QNgejIit8UnGDTKIT5bf-49" style="edgeStyle=orthogonalEdgeStyle;rounded=0;orthogonalLoop=1;jettySize=auto;html=1;entryX=0.5;entryY=0;entryDx=0;entryDy=0;" edge="1" parent="1" source="QNgejIit8UnGDTKIT5bf-25" target="QNgejIit8UnGDTKIT5bf-41">
          <mxGeometry relative="1" as="geometry" />
        </mxCell>
        <mxCell id="QNgejIit8UnGDTKIT5bf-25" value="" style="rounded=1;whiteSpace=wrap;html=1;dashed=1;fillColor=#cdeb8b;strokeColor=#36393d;" vertex="1" parent="1">
          <mxGeometry x="378.5" y="260" width="250" height="180" as="geometry" />
        </mxCell>
        <mxCell id="QNgejIit8UnGDTKIT5bf-9" value="Fill missing&amp;nbsp;&lt;br&gt;Zip, City, &amp;amp; State&amp;nbsp;&lt;br&gt;using Reverse Geocode API" style="rounded=1;whiteSpace=wrap;html=1;fillColor=#cce5ff;strokeColor=#36393d;" vertex="1" parent="1">
          <mxGeometry x="443.5" y="370" width="120" height="60" as="geometry" />
        </mxCell>
        <mxCell id="QNgejIit8UnGDTKIT5bf-26" value="Fill missing Latitude/Longitude Locations using Geocode API&amp;nbsp;" style="rounded=1;whiteSpace=wrap;html=1;fillColor=#cce5ff;strokeColor=#36393d;" vertex="1" parent="1">
          <mxGeometry x="443.5" y="300" width="120" height="60" as="geometry" />
        </mxCell>
        <mxCell id="QNgejIit8UnGDTKIT5bf-27" value="&lt;b&gt;1.Backfill_Location_Info.ipynb&lt;/b&gt;" style="text;html=1;strokeColor=none;fillColor=none;align=center;verticalAlign=middle;whiteSpace=wrap;rounded=0;" vertex="1" parent="1">
          <mxGeometry x="473.5" y="260" width="60" height="30" as="geometry" />
        </mxCell>
        <mxCell id="QNgejIit8UnGDTKIT5bf-32" style="edgeStyle=orthogonalEdgeStyle;rounded=0;orthogonalLoop=1;jettySize=auto;html=1;exitX=0.5;exitY=1;exitDx=0;exitDy=0;entryX=0.5;entryY=0;entryDx=0;entryDy=0;" edge="1" parent="1" source="QNgejIit8UnGDTKIT5bf-31" target="QNgejIit8UnGDTKIT5bf-27">
          <mxGeometry relative="1" as="geometry" />
        </mxCell>
        <mxCell id="QNgejIit8UnGDTKIT5bf-31" value="Food_Inspection_clustered.csv&amp;nbsp;" style="rounded=1;whiteSpace=wrap;html=1;fillColor=#ffff88;strokeColor=#36393d;fontStyle=1" vertex="1" parent="1">
          <mxGeometry x="413.5" y="190" width="185" height="40" as="geometry" />
        </mxCell>
        <mxCell id="QNgejIit8UnGDTKIT5bf-69" style="edgeStyle=none;rounded=0;orthogonalLoop=1;jettySize=auto;html=1;entryX=0.408;entryY=0;entryDx=0;entryDy=0;entryPerimeter=0;" edge="1" parent="1" source="QNgejIit8UnGDTKIT5bf-34" target="QNgejIit8UnGDTKIT5bf-53">
          <mxGeometry relative="1" as="geometry" />
        </mxCell>
        <mxCell id="QNgejIit8UnGDTKIT5bf-34" value="Food_Inspection_location.csv&amp;nbsp;" style="rounded=1;whiteSpace=wrap;html=1;fillColor=#ffff88;strokeColor=#36393d;fontStyle=1" vertex="1" parent="1">
          <mxGeometry x="413.5" y="480" width="185" height="40" as="geometry" />
        </mxCell>
        <mxCell id="QNgejIit8UnGDTKIT5bf-36" style="edgeStyle=orthogonalEdgeStyle;rounded=0;orthogonalLoop=1;jettySize=auto;html=1;exitX=0.453;exitY=1.004;exitDx=0;exitDy=0;exitPerimeter=0;" edge="1" parent="1" source="QNgejIit8UnGDTKIT5bf-39">
          <mxGeometry relative="1" as="geometry">
            <mxPoint x="165.5" y="630" as="targetPoint" />
            <mxPoint x="166.5" y="570" as="sourcePoint" />
          </mxGeometry>
        </mxCell>
        <mxCell id="QNgejIit8UnGDTKIT5bf-35" value="Define Database Models" style="rounded=1;whiteSpace=wrap;html=1;fillColor=#cce5ff;strokeColor=#36393d;" vertex="1" parent="1">
          <mxGeometry x="113.5" y="480" width="120" height="60" as="geometry" />
        </mxCell>
        <mxCell id="QNgejIit8UnGDTKIT5bf-41" value="&lt;b&gt;2. models.py&lt;br&gt;&lt;br&gt;&lt;/b&gt;" style="text;html=1;strokeColor=none;fillColor=none;align=center;verticalAlign=middle;whiteSpace=wrap;rounded=0;" vertex="1" parent="1">
          <mxGeometry x="116" y="460" width="100" height="30" as="geometry" />
        </mxCell>
        <mxCell id="QNgejIit8UnGDTKIT5bf-45" value="&lt;b&gt;3. create_db_tables.py&lt;/b&gt;" style="text;html=1;strokeColor=none;fillColor=none;align=center;verticalAlign=middle;whiteSpace=wrap;rounded=0;" vertex="1" parent="1">
          <mxGeometry x="98.5" y="630" width="140" height="30" as="geometry" />
        </mxCell>
        <mxCell id="QNgejIit8UnGDTKIT5bf-46" value="Generate SQLite Database from Models" style="rounded=1;whiteSpace=wrap;html=1;fillColor=#cce5ff;strokeColor=#36393d;" vertex="1" parent="1">
          <mxGeometry x="106" y="660" width="120" height="60" as="geometry" />
        </mxCell>
        <mxCell id="QNgejIit8UnGDTKIT5bf-74" style="edgeStyle=none;rounded=0;orthogonalLoop=1;jettySize=auto;html=1;entryX=0.461;entryY=0.05;entryDx=0;entryDy=0;entryPerimeter=0;" edge="1" parent="1" source="QNgejIit8UnGDTKIT5bf-54" target="QNgejIit8UnGDTKIT5bf-73">
          <mxGeometry relative="1" as="geometry" />
        </mxCell>
        <mxCell id="QNgejIit8UnGDTKIT5bf-54" value="&amp;nbsp;" style="rounded=1;whiteSpace=wrap;html=1;dashed=1;fillColor=#cdeb8b;strokeColor=#36393d;" vertex="1" parent="1">
          <mxGeometry x="86" y="830" width="150" height="100" as="geometry" />
        </mxCell>
        <mxCell id="QNgejIit8UnGDTKIT5bf-55" value="Export cleaned database to CSV for Tableau" style="rounded=1;whiteSpace=wrap;html=1;fillColor=#cce5ff;strokeColor=#36393d;" vertex="1" parent="1">
          <mxGeometry x="101" y="860" width="120" height="60" as="geometry" />
        </mxCell>
        <mxCell id="QNgejIit8UnGDTKIT5bf-56" value="&lt;b&gt;extract_db_flat_file.py&lt;/b&gt;" style="text;html=1;strokeColor=none;fillColor=none;align=center;verticalAlign=middle;whiteSpace=wrap;rounded=0;" vertex="1" parent="1">
          <mxGeometry x="133.5" y="830" width="60" height="30" as="geometry" />
        </mxCell>
        <mxCell id="QNgejIit8UnGDTKIT5bf-70" style="edgeStyle=none;rounded=0;orthogonalLoop=1;jettySize=auto;html=1;entryX=0.5;entryY=0;entryDx=0;entryDy=0;" edge="1" parent="1" source="QNgejIit8UnGDTKIT5bf-58" target="QNgejIit8UnGDTKIT5bf-56">
          <mxGeometry relative="1" as="geometry" />
        </mxCell>
        <mxCell id="QNgejIit8UnGDTKIT5bf-58" value="foodinspections_cleaned.sqlite" style="rounded=1;whiteSpace=wrap;html=1;fillColor=#ffff88;strokeColor=#36393d;fontStyle=1" vertex="1" parent="1">
          <mxGeometry x="71" y="770" width="185" height="40" as="geometry" />
        </mxCell>
        <mxCell id="QNgejIit8UnGDTKIT5bf-62" value="" style="group" vertex="1" connectable="0" parent="1">
          <mxGeometry x="308.5" y="550" width="470" height="380" as="geometry" />
        </mxCell>
        <mxCell id="QNgejIit8UnGDTKIT5bf-28" value="" style="rounded=1;whiteSpace=wrap;html=1;dashed=1;fillColor=#cdeb8b;strokeColor=#36393d;" vertex="1" parent="QNgejIit8UnGDTKIT5bf-62">
          <mxGeometry width="470" height="380" as="geometry" />
        </mxCell>
        <mxCell id="QNgejIit8UnGDTKIT5bf-51" value="" style="group;container=0;" vertex="1" connectable="0" parent="QNgejIit8UnGDTKIT5bf-62">
          <mxGeometry width="470" height="380" as="geometry" />
        </mxCell>
        <mxCell id="QNgejIit8UnGDTKIT5bf-10" value="Normalize Column Names" style="rounded=1;whiteSpace=wrap;html=1;fillColor=#cce5ff;strokeColor=#36393d;" vertex="1" parent="QNgejIit8UnGDTKIT5bf-62">
          <mxGeometry x="17.5" y="30" width="120" height="60" as="geometry" />
        </mxCell>
        <mxCell id="QNgejIit8UnGDTKIT5bf-11" value="Derive Risk Level &amp;amp; Category Columns" style="rounded=1;whiteSpace=wrap;html=1;fillColor=#cce5ff;strokeColor=#36393d;" vertex="1" parent="QNgejIit8UnGDTKIT5bf-62">
          <mxGeometry x="177.5" y="30" width="120" height="60" as="geometry" />
        </mxCell>
        <mxCell id="QNgejIit8UnGDTKIT5bf-13" value="Convert Data Types" style="rounded=1;whiteSpace=wrap;html=1;fillColor=#cce5ff;strokeColor=#36393d;" vertex="1" parent="QNgejIit8UnGDTKIT5bf-62">
          <mxGeometry x="330" y="30" width="120" height="60" as="geometry" />
        </mxCell>
        <mxCell id="QNgejIit8UnGDTKIT5bf-14" value="Replace Invalid Values" style="rounded=1;whiteSpace=wrap;html=1;fillColor=#cce5ff;strokeColor=#36393d;" vertex="1" parent="QNgejIit8UnGDTKIT5bf-62">
          <mxGeometry x="17.5" y="100" width="120" height="60" as="geometry" />
        </mxCell>
        <mxCell id="QNgejIit8UnGDTKIT5bf-15" value="Drop Blank/Null Rows" style="rounded=1;whiteSpace=wrap;html=1;fillColor=#cce5ff;strokeColor=#36393d;" vertex="1" parent="QNgejIit8UnGDTKIT5bf-62">
          <mxGeometry x="175" y="100" width="120" height="60" as="geometry" />
        </mxCell>
        <mxCell id="QNgejIit8UnGDTKIT5bf-16" value="Format Zipcode" style="rounded=1;whiteSpace=wrap;html=1;fillColor=#cce5ff;strokeColor=#36393d;" vertex="1" parent="QNgejIit8UnGDTKIT5bf-62">
          <mxGeometry x="330" y="100" width="120" height="60" as="geometry" />
        </mxCell>
        <mxCell id="QNgejIit8UnGDTKIT5bf-18" value="Parse &amp;amp; Extract Violations" style="rounded=1;whiteSpace=wrap;html=1;fillColor=#cce5ff;strokeColor=#36393d;" vertex="1" parent="QNgejIit8UnGDTKIT5bf-62">
          <mxGeometry x="17.5" y="170" width="120" height="60" as="geometry" />
        </mxCell>
        <mxCell id="QNgejIit8UnGDTKIT5bf-19" value="Clean Violations" style="rounded=1;whiteSpace=wrap;html=1;fillColor=#cce5ff;strokeColor=#36393d;" vertex="1" parent="QNgejIit8UnGDTKIT5bf-62">
          <mxGeometry x="177.5" y="170" width="120" height="60" as="geometry" />
        </mxCell>
        <mxCell id="QNgejIit8UnGDTKIT5bf-20" value="Drop Duplicated Violations" style="rounded=1;whiteSpace=wrap;html=1;fillColor=#cce5ff;strokeColor=#36393d;" vertex="1" parent="QNgejIit8UnGDTKIT5bf-62">
          <mxGeometry x="330" y="170" width="120" height="60" as="geometry" />
        </mxCell>
        <mxCell id="QNgejIit8UnGDTKIT5bf-21" value="Fill Null Values" style="rounded=1;whiteSpace=wrap;html=1;fillColor=#cce5ff;strokeColor=#36393d;" vertex="1" parent="QNgejIit8UnGDTKIT5bf-62">
          <mxGeometry x="17.5" y="240" width="120" height="60" as="geometry" />
        </mxCell>
        <mxCell id="QNgejIit8UnGDTKIT5bf-22" value="Fix Location Conflicts" style="rounded=1;whiteSpace=wrap;html=1;fillColor=#cce5ff;strokeColor=#36393d;" vertex="1" parent="QNgejIit8UnGDTKIT5bf-62">
          <mxGeometry x="175" y="240" width="120" height="60" as="geometry" />
        </mxCell>
        <mxCell id="QNgejIit8UnGDTKIT5bf-23" value="Drop Duplicated Establishments" style="rounded=1;whiteSpace=wrap;html=1;fillColor=#cce5ff;strokeColor=#36393d;" vertex="1" parent="QNgejIit8UnGDTKIT5bf-62">
          <mxGeometry x="330" y="240" width="120" height="60" as="geometry" />
        </mxCell>
        <mxCell id="QNgejIit8UnGDTKIT5bf-24" value="Drop Duplicated Location" style="rounded=1;whiteSpace=wrap;html=1;fillColor=#cce5ff;strokeColor=#36393d;" vertex="1" parent="QNgejIit8UnGDTKIT5bf-62">
          <mxGeometry x="175" y="310" width="120" height="60" as="geometry" />
        </mxCell>
        <mxCell id="QNgejIit8UnGDTKIT5bf-53" value="&lt;b&gt;4. populate_models.py&lt;/b&gt;" style="text;html=1;strokeColor=none;fillColor=none;align=center;verticalAlign=middle;whiteSpace=wrap;rounded=0;" vertex="1" parent="QNgejIit8UnGDTKIT5bf-62">
          <mxGeometry x="120" width="190" height="30" as="geometry" />
        </mxCell>
        <mxCell id="QNgejIit8UnGDTKIT5bf-72" style="edgeStyle=none;rounded=0;orthogonalLoop=1;jettySize=auto;html=1;entryX=1;entryY=0.5;entryDx=0;entryDy=0;" edge="1" parent="1" target="QNgejIit8UnGDTKIT5bf-58">
          <mxGeometry relative="1" as="geometry">
            <mxPoint x="308.5" y="790" as="sourcePoint" />
          </mxGeometry>
        </mxCell>
        <mxCell id="QNgejIit8UnGDTKIT5bf-73" value="food_inspections_db_cleaned.csv" style="rounded=1;whiteSpace=wrap;html=1;fillColor=#ffff88;strokeColor=#36393d;fontStyle=1" vertex="1" parent="1">
          <mxGeometry x="71" y="960" width="199" height="40" as="geometry" />
        </mxCell>
      </root>
    </mxGraphModel>
  </diagram>
</mxfile>
